<svg width="332" height="332" viewBox="0 0 332 332" fill="none" xmlns="http://www.w3.org/2000/svg">
<g clip-path="url(#clip0)">
<g clip-path="url(#clip1)">
<rect x="43" y="123" width="245" height="198" rx="30" fill="#FC1A40"/>
<path d="M243.974 37.4041C236.53 26.2558 224.038 19.9494 210.423 20.4716C197.048 21.1071 185.105 28.4499 178.822 40.3615L164.872 65.8927L150.964 40.2309C144.516 28.5207 132.764 20.9413 119.117 20.272C116.496 20.2183 113.94 20.3425 111.513 20.8214C101.08 22.3975 91.7739 28.1813 85.8272 37.1625C77.8719 48.8785 77.1515 63.9914 83.6792 76.4749C90.3851 88.8944 103.279 96.8621 117.44 96.7433L139.046 96.7344L165.714 96.8962C165.891 96.8321 165.891 96.8321 165.891 96.8321L212.203 97.0939C216.784 97.0386 221.286 96.2096 225.352 94.7346C234.018 91.5919 241.346 85.3201 245.878 76.8533C252.562 64.3939 251.853 49.197 243.974 37.4041Z" fill="#FE9923"/>
<path d="M245.877 76.8535C241.345 85.3203 234.016 91.5923 225.352 94.7349C221.286 96.2096 216.784 97.0387 212.203 97.0941L165.891 96.8323C165.891 96.8323 165.891 96.8323 165.714 96.8965L139.045 96.7347L111.512 20.8211C113.94 20.3427 116.495 20.2179 119.116 20.2717C132.763 20.9409 144.516 28.5201 150.963 40.2306L164.872 65.8924L178.821 40.3612C185.104 28.4495 197.047 21.1068 210.422 20.4713C224.037 19.949 236.529 26.2557 243.973 37.4038C251.852 49.197 252.562 64.394 245.877 76.8535Z" fill="#FE8821"/>
<path d="M306.621 105.873L306.691 143.579C306.563 147.64 303.975 150.986 300.439 152.269C299.378 152.654 298.253 152.861 297.241 152.828L193.733 152.638L175.452 128.16L155.151 141.141L137.31 152.63L33.8017 152.44C28.5614 152.334 24.3976 148.023 24.3801 143.012L24.487 105.243C24.3411 97.6697 27.3623 90.5517 32.6343 85.2284C37.9063 79.9051 45.0263 76.9207 52.6459 76.9669L131.929 77.1123L137.347 77.1537C137.347 77.1537 169.051 104.992 169.582 104.8C169.936 104.671 175.995 97.6573 181.941 90.8838C187.886 84.1116 193.769 77.1617 193.769 77.1617L278.292 77.4133C285.911 77.4596 293.017 80.5026 298.338 85.7978C303.661 91.0918 306.652 98.2364 306.621 105.873Z" fill="#FF3E75"/>
<path d="M306.621 105.873L306.692 143.579C306.563 147.64 303.975 150.987 300.439 152.269C299.378 152.654 298.253 152.861 297.241 152.828L193.733 152.638L175.452 128.16L155.151 141.141L131.928 77.1126L137.346 77.154C137.346 77.154 169.05 104.993 169.581 104.8C169.936 104.672 175.994 97.6575 181.941 90.884C187.886 84.1116 193.769 77.1617 193.769 77.1617L278.292 77.4134C285.911 77.4596 293.017 80.5026 298.338 85.7978C303.661 91.0918 306.652 98.2364 306.621 105.873Z" fill="#FC1A40"/>
<path d="M137.346 77.1539L137.331 92.0107L137.31 152.63L159.332 152.671L184.329 152.637L193.732 152.638L193.769 77.1614L137.346 77.1539Z" fill="#FCBF29"/>
<path d="M137 151V321H177V151H137V151Z" fill="#FCBF29"/>
<path d="M194 151H160V321H194V151Z" fill="#FE9923"/>
<path d="M193.769 77.162L193.733 152.638L184.329 152.636L159.333 152.671L137.332 92.0111L137.346 77.1544L193.769 77.162Z" fill="#FE9923"/>
</g>
</g>
<defs>
<clipPath id="clip0">
<rect width="332" height="332" fill="white"/>
</clipPath>
<clipPath id="clip1">
<rect width="321" height="322" fill="white" transform="translate(16 -1)"/>
</clipPath>
</defs>
</svg>
