<svg width="332" height="332" viewBox="0 0 332 332" fill="none" xmlns="http://www.w3.org/2000/svg">
<g clip-path="url(#clip0)">
<g clip-path="url(#clip1)">
<path d="M280.274 164.729L250.184 153.769C249.255 153.398 248.141 153.213 247.027 153.213H54.2264C49.025 153.213 44.9393 157.298 44.9393 162.5V293.139C44.9393 308.555 57.3834 321 72.8007 321H258.543C273.96 321 286.405 308.555 286.405 293.139V173.458C286.405 169.558 283.989 166.029 280.274 164.729Z" fill="#FC1A40"/>
<path d="M286.405 173.458V293.139C286.405 308.555 273.96 321 258.543 321H165.672V153.213H247.027C248.142 153.213 249.256 153.398 250.184 153.769L280.274 164.729C283.989 166.029 286.405 169.558 286.405 173.458Z" fill="#C60034"/>
<path d="M283.061 64.5446C279.904 51.7284 270.431 41.6989 257.615 37.612C244.984 33.7107 231.424 36.4975 221.58 45.4125L200.034 64.3589L195.762 35.9409C193.719 22.9389 185.361 11.9795 172.917 6.77932C170.502 5.84999 168.087 5.10702 165.673 4.73553C155.457 2.69237 144.869 4.92128 136.325 11.2371C124.994 19.4098 119.237 33.1548 121.094 46.8991C123.138 60.644 132.425 72.3458 145.612 76.9894L165.673 84.2333L190.376 93.3347C190.562 93.3347 190.562 93.3347 190.562 93.3347L233.469 109.122C237.74 110.609 242.198 111.352 246.47 111.352C255.573 111.352 264.488 108.008 271.546 101.693C281.947 92.406 286.405 78.1032 283.061 64.5446Z" fill="#FE9923"/>
<path d="M271.545 101.693C264.487 108.008 255.571 111.352 246.469 111.352C242.198 111.352 237.74 110.609 233.468 109.122L190.561 93.3347C190.561 93.3347 190.561 93.3347 190.376 93.3347L165.672 84.2334V4.73492C168.087 5.10703 170.501 5.84938 172.916 6.77871C185.36 11.9789 193.719 22.9383 195.762 35.9403L200.033 64.3583L221.58 45.4119C231.424 36.4969 244.983 33.7101 257.614 37.6114C270.43 41.6983 279.903 51.7278 283.061 64.544C286.405 78.1032 281.947 92.406 271.545 101.693Z" fill="#FE8821"/>
<path d="M318.167 148.94L305.536 183.859C304.05 187.574 300.52 189.803 296.806 189.803C295.691 189.803 294.577 189.617 293.649 189.247L197.619 154.327L188.89 125.537L165.672 130.737L145.241 135.381L49.2114 100.461C44.3821 98.6042 41.968 93.2171 43.6391 88.5735L56.4553 53.6552C58.87 46.597 64.0714 41.0234 70.7581 37.8664C77.4449 34.7094 85.0597 34.3373 92.1179 36.9377L165.673 63.6847L170.688 65.5415C170.688 65.5415 190.748 101.948 191.306 101.948C191.678 101.948 199.664 97.4898 207.465 93.2171C215.265 88.945 223.066 84.4878 223.066 84.4878L301.449 113.092C308.507 115.692 314.08 120.893 317.237 127.58C320.396 134.266 320.766 141.882 318.167 148.94Z" fill="#FF3E75"/>
<path d="M318.167 148.94L305.536 183.859C304.05 187.574 300.52 189.803 296.806 189.803C295.691 189.803 294.577 189.617 293.649 189.247L197.619 154.327L188.89 125.537L165.672 130.737V63.6847L170.688 65.5415C170.688 65.5415 190.747 101.948 191.305 101.948C191.677 101.948 199.663 97.4898 207.465 93.2171C215.265 88.945 223.066 84.4878 223.066 84.4878L301.449 113.092C308.507 115.692 314.08 120.893 317.237 127.58C320.395 134.266 320.766 141.882 318.167 148.94Z" fill="#FC1A40"/>
<path d="M137.811 153.213V321H193.533V153.213H137.811V153.213Z" fill="#FCBF29"/>
<path d="M170.687 65.5415L165.671 79.2864L145.24 135.381L165.671 142.812L188.889 151.17L197.618 154.327L223.066 84.4878L170.687 65.5415Z" fill="#FCBF29"/>
<path d="M193.536 153.213H165.674V321H193.536V153.213Z" fill="#FE9923"/>
<path d="M223.066 84.4878L197.619 154.327L188.89 151.169L165.672 142.811V79.2864L170.687 65.5415L223.066 84.4878Z" fill="#FE9923"/>
</g>
</g>
<defs>
<clipPath id="clip0">
<rect width="332" height="332" fill="white"/>
</clipPath>
<clipPath id="clip1">
<rect width="317" height="317" fill="white" transform="translate(23 4)"/>
</clipPath>
</defs>
</svg>
